<?xml version="1.0" encoding="UTF-8" standalone="no"?>
<svg
   xmlns:dc="http://purl.org/dc/elements/1.1/"
   xmlns:cc="http://creativecommons.org/ns#"
   xmlns:rdf="http://www.w3.org/1999/02/22-rdf-syntax-ns#"
   xmlns:svg="http://www.w3.org/2000/svg"
   xmlns="http://www.w3.org/2000/svg"
   xmlns:sodipodi="http://sodipodi.sourceforge.net/DTD/sodipodi-0.dtd"
   xmlns:inkscape="http://www.inkscape.org/namespaces/inkscape"
   width="20mm"
   height="20mm"
   viewBox="0 0 20 20"
   version="1.1"
   id="svg8"
   inkscape:version="1.0.1 (3bc2e813f5, 2020-09-07)"
   sodipodi:docname="Bike.inkscape.svg">
  <defs
     id="defs2" />
  <sodipodi:namedview
     id="base"
     pagecolor="#ffffff"
     bordercolor="#666666"
     borderopacity="1.0"
     inkscape:pageopacity="0.0"
     inkscape:pageshadow="2"
     inkscape:zoom="8"
     inkscape:cx="33.052591"
     inkscape:cy="31.661994"
     inkscape:document-units="mm"
     inkscape:current-layer="layer1"
     inkscape:document-rotation="0"
     showgrid="true"
     inkscape:window-width="1920"
     inkscape:window-height="1057"
     inkscape:window-x="1912"
     inkscape:window-y="-8"
     inkscape:window-maximized="1">
    <sodipodi:guide
       position="0,19.999999"
       orientation="0,75.590551"
       id="guide833" />
    <sodipodi:guide
       position="19.999999,19.999999"
       orientation="75.590551,0"
       id="guide835" />
    <sodipodi:guide
       position="19.999999,0"
       orientation="0,-75.590551"
       id="guide837" />
    <sodipodi:guide
       position="0,0"
       orientation="-75.590551,0"
       id="guide839" />
    <inkscape:grid
       type="xygrid"
       id="grid841"
       units="mm"
       spacingx="0.099999997"
       spacingy="0.099999997" />
  </sodipodi:namedview>
  <metadata
     id="metadata5">
    <rdf:RDF>
      <cc:Work
         rdf:about="">
        <dc:format>image/svg+xml</dc:format>
        <dc:type
           rdf:resource="http://purl.org/dc/dcmitype/StillImage" />
        <dc:title></dc:title>
      </cc:Work>
    </rdf:RDF>
  </metadata>
  <g
     inkscape:label="Ebene 1"
     inkscape:groupmode="layer"
     id="layer1">
    <g
       id="g986"
       transform="matrix(3.7997039,0,0,3.7997039,-37.839713,-45.610954)">
      <g
         id="g964"
         transform="translate(1.1000006,0.09999959)">
        <g
           id="g897"
           transform="rotate(-22.5,10,15)">
          <path
             id="path860"
             style="fill:#ffffff;fill-opacity:0;stroke:#000000;stroke-width:0.377953;stroke-linecap:round;stroke-linejoin:round;stroke-miterlimit:4;stroke-dasharray:none"
             transform="scale(0.26458333)"
             d="m 35.470703,54.369141 2.324219,2.324218 V 53.40625 a 3.2865456,3.2865456 0 0 0 -2.324219,0.962891 z m 0,0 a 3.2865456,3.2865456 0 0 0 -0.962891,2.324218 h 3.28711 z m 2.324219,2.324218 2.324219,-2.324218 A 3.2865456,3.2865456 0 0 0 37.794922,53.40625 Z m 0,0 h 3.287109 a 3.2865456,3.2865456 0 0 0 -0.96289,-2.324218 z m 0,0 2.322266,2.322266 a 3.2865456,3.2865456 0 0 0 0.964843,-2.322266 z m 0,0 v 3.285157 a 3.2865456,3.2865456 0 0 0 2.322266,-0.962891 z m 0,0 -2.322266,2.322266 a 3.2865456,3.2865456 0 0 0 2.322266,0.962891 z m 0,0 h -3.28711 a 3.2865456,3.2865456 0 0 0 0.964844,2.322266 z" />
          <circle
             style="fill:#ffffff;fill-opacity:0;stroke:#000000;stroke-width:0.26087;stroke-linecap:round;stroke-linejoin:round;stroke-miterlimit:4;stroke-dasharray:none"
             id="circle891"
             cx="10"
             cy="15"
             r="0.86956519" />
        </g>
        <g
           id="g909"
           transform="rotate(-22.5,11.499656,7.4588149)">
          <path
             id="path905"
             style="fill:#ffffff;fill-opacity:0;stroke:#000000;stroke-width:0.377953;stroke-linecap:round;stroke-linejoin:round;stroke-miterlimit:4;stroke-dasharray:none"
             transform="scale(0.26458333)"
             d="m 35.470703,54.369141 2.324219,2.324218 V 53.40625 a 3.2865456,3.2865456 0 0 0 -2.324219,0.962891 z m 0,0 a 3.2865456,3.2865456 0 0 0 -0.962891,2.324218 h 3.28711 z m 2.324219,2.324218 2.324219,-2.324218 A 3.2865456,3.2865456 0 0 0 37.794922,53.40625 Z m 0,0 h 3.287109 a 3.2865456,3.2865456 0 0 0 -0.96289,-2.324218 z m 0,0 2.322266,2.322266 a 3.2865456,3.2865456 0 0 0 0.964843,-2.322266 z m 0,0 v 3.285157 a 3.2865456,3.2865456 0 0 0 2.322266,-0.962891 z m 0,0 -2.322266,2.322266 a 3.2865456,3.2865456 0 0 0 2.322266,0.962891 z m 0,0 h -3.28711 a 3.2865456,3.2865456 0 0 0 0.964844,2.322266 z" />
          <circle
             style="fill:#ffffff;fill-opacity:0;stroke:#000000;stroke-width:0.26087;stroke-linecap:round;stroke-linejoin:round;stroke-miterlimit:4;stroke-dasharray:none"
             id="circle907"
             cx="10"
             cy="15"
             r="0.86956519" />
        </g>
        <path
           style="fill:none;stroke:#000000;stroke-width:0.165;stroke-linecap:butt;stroke-linejoin:miter;stroke-miterlimit:4;stroke-dasharray:none;stroke-opacity:1"
           d="M 9.9999995,14.999999 11.2,15 12.4,13.5"
           id="path913"
           sodipodi:nodetypes="ccc" />
        <path
           style="fill:none;stroke:#000000;stroke-width:0.165;stroke-linecap:butt;stroke-linejoin:miter;stroke-miterlimit:4;stroke-dasharray:none;stroke-opacity:1"
           d="M 13,14.999999 12.4,13.5"
           id="path915"
           sodipodi:nodetypes="cc" />
        <path
           style="fill:none;stroke:#000000;stroke-width:0.165;stroke-linecap:butt;stroke-linejoin:miter;stroke-miterlimit:4;stroke-dasharray:none;stroke-opacity:1"
           d="m 11.199999,14.999999 -0.4,-1.499999 h 1.6"
           id="path917" />
        <path
           style="fill:none;stroke:#000000;stroke-width:0.165;stroke-linecap:butt;stroke-linejoin:miter;stroke-miterlimit:4;stroke-dasharray:none;stroke-opacity:1"
           d="M 10.799999,13.5 10.628571,12.9"
           id="path919"
           sodipodi:nodetypes="cc" />
        <path
           style="fill:none;stroke:#000000;stroke-width:0.165;stroke-linecap:round;stroke-linejoin:miter;stroke-miterlimit:4;stroke-dasharray:none;stroke-opacity:1"
           d="M 12.399999,13.5 12.2,13"
           id="path921"
           sodipodi:nodetypes="cc" />
        <path
           style="fill:none;stroke:#000000;stroke-width:0.264583px;stroke-linecap:round;stroke-linejoin:round;stroke-opacity:1"
           d="m 10.7,13 h 0.4 -0.8"
           id="path923" />
        <circle
           style="fill:#ffffff;fill-opacity:0;stroke:#000000;stroke-width:0.1;stroke-linecap:round;stroke-linejoin:round;stroke-miterlimit:4;stroke-dasharray:none"
           id="path925"
           cx="11.2"
           cy="15"
           r="0.29999998" />
        <path
           style="fill:none;stroke:#000000;stroke-width:0.065;stroke-linecap:butt;stroke-linejoin:miter;stroke-miterlimit:4;stroke-dasharray:none;stroke-opacity:1"
           d="m 11.199999,14.999999 0.4,0.5"
           id="path931" />
        <path
           style="fill:none;stroke:#000000;stroke-width:0.065;stroke-linecap:butt;stroke-linejoin:miter;stroke-miterlimit:4;stroke-dasharray:none;stroke-opacity:1"
           d="M 10.8,14.5 11.2,15"
           id="path935" />
        <path
           style="fill:none;stroke:#000000;stroke-width:0.2;stroke-linecap:round;stroke-linejoin:round;stroke-miterlimit:4;stroke-dasharray:none;stroke-opacity:1"
           d="m 11.5,15.499999 h 0.2"
           id="path937" />
        <path
           style="fill:none;stroke:#000000;stroke-width:0.2;stroke-linecap:round;stroke-linejoin:round;stroke-miterlimit:4;stroke-dasharray:none;stroke-opacity:1"
           d="m 10.7,14.5 h 0.2"
           id="path939" />
        <path
           style="fill:none;stroke:#000000;stroke-width:0.264583px;stroke-linecap:round;stroke-linejoin:round;stroke-opacity:1"
           d="M 12.2,13 H 11.999999"
           id="path941" />
        <path
           style="fill:none;stroke:#000000;stroke-width:0.1;stroke-linecap:butt;stroke-linejoin:miter;stroke-miterlimit:4;stroke-dasharray:none;stroke-opacity:1"
           d="m 9.9999995,14.999999 0.8999995,-1.1"
           id="path943" />
      </g>
    </g>
  </g>
</svg>
