<?xml version="1.0" encoding="UTF-8"?>
<svg width="20mm" height="20mm" version="1.1" viewBox="0 0 20 20" xmlns="http://www.w3.org/2000/svg">
 <g transform="matrix(3.7997 0 0 3.7997 -37.84 -45.611)">
  <g transform="translate(1.1 .1)" stroke="#000">
   <g transform="rotate(-22.5,10,15)" fill-opacity="0" stroke-linecap="round" stroke-linejoin="round">
    <path transform="scale(.26458)" d="m35.471 54.369 2.3242 2.3242v-3.2871a3.2865 3.2865 0 0 0-2.3242 0.96289zm0 0a3.2865 3.2865 0 0 0-0.96289 2.3242h3.2871zm2.3242 2.3242 2.3242-2.3242a3.2865 3.2865 0 0 0-2.3242-0.96289zm0 0h3.2871a3.2865 3.2865 0 0 0-0.96289-2.3242zm0 0 2.3223 2.3223a3.2865 3.2865 0 0 0 0.96484-2.3223zm0 0v3.2852a3.2865 3.2865 0 0 0 2.3223-0.96289zm0 0-2.3223 2.3223a3.2865 3.2865 0 0 0 2.3223 0.96289zm0 0h-3.2871a3.2865 3.2865 0 0 0 0.96484 2.3223z" stroke-width=".37795"/>
    <circle cx="10" cy="15" r=".86957" stroke-width=".26087"/>
   </g>
   <g transform="rotate(-22.5 11.5 7.4588)" fill-opacity="0" stroke-linecap="round" stroke-linejoin="round">
    <path transform="scale(.26458)" d="m35.471 54.369 2.3242 2.3242v-3.2871a3.2865 3.2865 0 0 0-2.3242 0.96289zm0 0a3.2865 3.2865 0 0 0-0.96289 2.3242h3.2871zm2.3242 2.3242 2.3242-2.3242a3.2865 3.2865 0 0 0-2.3242-0.96289zm0 0h3.2871a3.2865 3.2865 0 0 0-0.96289-2.3242zm0 0 2.3223 2.3223a3.2865 3.2865 0 0 0 0.96484-2.3223zm0 0v3.2852a3.2865 3.2865 0 0 0 2.3223-0.96289zm0 0-2.3223 2.3223a3.2865 3.2865 0 0 0 2.3223 0.96289zm0 0h-3.2871a3.2865 3.2865 0 0 0 0.96484 2.3223z" stroke-width=".37795"/>
    <circle cx="10" cy="15" r=".86957" stroke-width=".26087"/>
   </g>
   <g fill="none">
    <g stroke-width=".165">
     <g>
      <path d="m10 15 1.2 1e-6 1.2-1.5"/>
      <path d="m13 15-0.6-1.5"/>
      <path d="m11.2 15-0.4-1.5h1.6"/>
      <path d="m10.8 13.5-0.17143-0.6"/>
     </g>
     <path d="m12.4 13.5-0.2-0.5" stroke-linecap="round"/>
    </g>
    <path d="m10.7 13h0.4-0.8" stroke-linecap="round" stroke-linejoin="round" stroke-width=".26458px"/>
   </g>
   <circle cx="11.2" cy="15" r=".3" fill-opacity="0" stroke-linecap="round" stroke-linejoin="round" stroke-width=".1"/>
   <g fill="none">
    <g>
     <path d="m11.2 15 0.4 0.5" stroke-width=".065"/>
     <path d="m10.8 14.5 0.4 0.5" stroke-width=".065"/>
     <path d="m11.5 15.5h0.2" stroke-linecap="round" stroke-linejoin="round" stroke-width=".2"/>
     <path d="m10.7 14.5h0.2" stroke-linecap="round" stroke-linejoin="round" stroke-width=".2"/>
    </g>
    <path d="m12.2 13h-0.2" stroke-linecap="round" stroke-linejoin="round" stroke-width=".26458px"/>
    <path d="m10 15 0.9-1.1" stroke-width=".1"/>
   </g>
  </g>
 </g>
</svg>
