<?xml version="1.0" encoding="UTF-8" standalone="no"?>
<svg
   xmlns:dc="http://purl.org/dc/elements/1.1/"
   xmlns:cc="http://creativecommons.org/ns#"
   xmlns:rdf="http://www.w3.org/1999/02/22-rdf-syntax-ns#"
   xmlns:svg="http://www.w3.org/2000/svg"
   xmlns="http://www.w3.org/2000/svg"
   xmlns:sodipodi="http://sodipodi.sourceforge.net/DTD/sodipodi-0.dtd"
   xmlns:inkscape="http://www.inkscape.org/namespaces/inkscape"
   width="32"
   height="32"
   viewBox="0 0 8.4666667 8.4666667"
   version="1.1"
   id="svg8"
   inkscape:version="1.0.1 (3bc2e813f5, 2020-09-07)"
   sodipodi:docname="Gear2.inkscape.svg">
  <defs
     id="defs2" />
  <sodipodi:namedview
     id="base"
     pagecolor="#ffffff"
     bordercolor="#666666"
     borderopacity="1.0"
     inkscape:pageopacity="0.0"
     inkscape:pageshadow="2"
     inkscape:zoom="16"
     inkscape:cx="9.6326615"
     inkscape:cy="15.385797"
     inkscape:document-units="mm"
     inkscape:current-layer="layer1"
     inkscape:document-rotation="0"
     showgrid="true"
     units="px"
     inkscape:window-width="1920"
     inkscape:window-height="1057"
     inkscape:window-x="1912"
     inkscape:window-y="-8"
     inkscape:window-maximized="1"
     inkscape:snap-grids="true"
     inkscape:object-paths="false"
     inkscape:snap-intersection-paths="true"
     inkscape:snap-midpoints="false"
     inkscape:snap-smooth-nodes="false"
     inkscape:object-nodes="true">
    <sodipodi:guide
       position="0,8.4666667"
       orientation="0,32"
       id="guide833" />
    <sodipodi:guide
       position="8.4666667,8.4666667"
       orientation="32,0"
       id="guide835" />
    <sodipodi:guide
       position="8.4666667,0"
       orientation="0,-32"
       id="guide837" />
    <sodipodi:guide
       position="0,0"
       orientation="-32,0"
       id="guide839" />
    <inkscape:grid
       type="xygrid"
       id="grid841"
       spacingx="0.26458333"
       spacingy="0.26458333"
       empspacing="8" />
  </sodipodi:namedview>
  <metadata
     id="metadata5">
    <rdf:RDF>
      <cc:Work
         rdf:about="">
        <dc:format>image/svg+xml</dc:format>
        <dc:type
           rdf:resource="http://purl.org/dc/dcmitype/StillImage" />
        <dc:title></dc:title>
      </cc:Work>
    </rdf:RDF>
  </metadata>
  <g
     inkscape:label="Ebene 1"
     inkscape:groupmode="layer"
     id="layer1">
    <path
       id="path835"
       style="fill:#ffffff;fill-opacity:1;stroke:#000000;stroke-width:0.377953;stroke-linejoin:round;stroke-miterlimit:4;stroke-dasharray:none"
       d="M 13.341797 2.21875 C 12.652981 2.2518719 12.04405 2.4052982 11.410156 2.7363281 L 11.865234 6.8398438 L 10.134766 7.8398438 L 6.8066406 5.3925781 C 6.2267122 5.7656326 5.7759787 6.2030436 5.3925781 6.8066406 L 7.8398438 10.134766 L 6.8398438 11.865234 L 2.7363281 11.410156 C 2.3980386 12.055472 2.2530643 12.664804 2.21875 13.341797 L 6 15 L 6 17 L 2.21875 18.658203 C 2.2499073 19.359532 2.4124776 19.966941 2.7363281 20.589844 L 6.8398438 20.134766 L 7.8398438 21.865234 L 5.3925781 25.193359 C 5.7757901 25.797151 6.2262122 26.234866 6.8066406 26.607422 L 10.134766 24.160156 L 11.865234 25.160156 L 11.410156 29.263672 C 12.033175 29.587372 12.640354 29.75022 13.341797 29.78125 L 15 26 L 17 26 L 18.658203 29.78125 C 19.33549 29.747291 19.944512 29.602737 20.589844 29.263672 L 20.134766 25.160156 L 21.865234 24.160156 L 25.193359 26.607422 C 25.785394 26.229787 26.229779 25.785396 26.607422 25.193359 L 24.160156 21.865234 L 25.160156 20.134766 L 29.263672 20.589844 C 29.593712 19.966654 29.751955 19.330154 29.78125 18.658203 L 26 17 L 26 15 L 29.783203 13.341797 C 29.758827 12.618798 29.560565 11.987584 29.263672 11.410156 L 25.160156 11.865234 L 24.160156 10.134766 L 26.607422 6.8066406 C 26.127002 6.1197156 25.907684 5.887276 25.193359 5.3925781 L 21.865234 7.8398438 L 20.134766 6.8398438 L 20.589844 2.7363281 C 19.955761 2.4058222 19.347033 2.251972 18.658203 2.21875 L 17 6 L 15 6 L 13.341797 2.21875 z M 16 10 A 5.9999996 5.9999996 0 0 1 22 16 A 5.9999996 5.9999996 0 0 1 16 22 A 5.9999996 5.9999996 0 0 1 10 16 A 5.9999996 5.9999996 0 0 1 16 10 z "
       transform="scale(0.26458333)" />
  </g>
</svg>
