<?xml version="1.0" encoding="UTF-8" standalone="no"?>
<!-- Created with Inkscape (http://www.inkscape.org/) -->

<svg
   width="128mm"
   height="128mm"
   viewBox="0 0 128 128"
   version="1.1"
   id="svg1"
   xmlns:xlink="http://www.w3.org/1999/xlink"
   xmlns="http://www.w3.org/2000/svg"
   xmlns:svg="http://www.w3.org/2000/svg">
  <defs
     id="defs1">
    <linearGradient
       id="linearGradient23">
      <stop
         style="stop-color:#cee4e4;stop-opacity:1;"
         offset="0"
         id="stop23" />
      <stop
         style="stop-color:#78cdcb;stop-opacity:1;"
         offset="0.8057971"
         id="stop25" />
      <stop
         style="stop-color:#59c7c2;stop-opacity:1;"
         offset="1"
         id="stop24" />
    </linearGradient>
    <filter
       style="color-interpolation-filters:sRGB"
       id="filter17"
       x="-0.012613697"
       y="-0.06735406"
       width="1.0252274"
       height="1.1347081">
      <feGaussianBlur
         stdDeviation="0.28706835"
         id="feGaussianBlur17" />
    </filter>
    <linearGradient
       xlink:href="#linearGradient23"
       id="linearGradient24"
       x1="58.012745"
       y1="115.21646"
       x2="148.01274"
       y2="147.21646"
       gradientUnits="userSpaceOnUse" />
  </defs>
  <g
     id="layer1"
     transform="translate(-30.012744,-79.216459)">
    <path
       style="fill:url(#linearGradient24);stroke:none;stroke-width:0.264583px;stroke-linecap:butt;stroke-linejoin:miter;stroke-opacity:1;fill-opacity:1"
       d="m 62.012743,173.21646 h -8 v 7.99999 l 2.638245,6.88106 27.361753,1.64158 37.493729,-1.3198 2.50627,-47.20283 -2,-28 10,-2 -5.1625,-12.827886 -60.837497,0.827884 -4.911458,9.155542 0.911458,34.84446 z"
       id="path23" />
    <path
       style="fill:none;stroke:#000000;stroke-width:5.58121;stroke-linecap:round;stroke-linejoin:miter;stroke-dasharray:none;stroke-opacity:1"
       d="m 62.163602,182.79637 v -4.80851"
       id="path3" />
    <path
       style="fill:none;stroke:#000000;stroke-width:5.58121;stroke-linecap:butt;stroke-linejoin:miter;stroke-dasharray:none;stroke-opacity:1"
       d="m 122.15982,182.79637 v -67.00382 -4.03962"
       id="path19" />
    <path
       style="fill:none;stroke:#000000;stroke-width:5.58121;stroke-linecap:butt;stroke-linejoin:miter;stroke-dasharray:none;stroke-opacity:1"
       d="m 122.16804,182.763 c 0,3.20364 -1.93117,5.62103 -4.10683,5.62642"
       id="path18" />
    <path
       style="fill:none;stroke:#000000;stroke-width:5.58121;stroke-linecap:butt;stroke-linejoin:miter;stroke-dasharray:none;stroke-opacity:1"
       d="m 118.06617,188.42279 -60.000285,-0.007"
       id="path7" />
    <path
       style="fill:none;stroke:#000000;stroke-width:5.58121;stroke-linecap:butt;stroke-linejoin:miter;stroke-dasharray:none;stroke-opacity:1"
       d="m 62.163602,182.79637 c 0,7.12013 -9.59567,10.06443 -9.59567,-7.14739 0,-2.85349 2.729094,-2.85349 2.729094,-2.85349 l 6.866576,0.023"
       id="path22" />
    <path
       style="fill:none;stroke:#000000;stroke-width:5.58121;stroke-linecap:butt;stroke-linejoin:miter;stroke-dasharray:none;stroke-opacity:1"
       d="M 62.163602,182.79637 V 118.01165"
       id="path21" />
    <path
       style="fill:none;stroke:#000000;stroke-width:5.58121;stroke-linecap:butt;stroke-linejoin:round;stroke-dasharray:none;stroke-opacity:1"
       d="m 62.163602,118.01165 c 0,-30.183925 9.507987,-19.124498 9.507987,-10.84669 10e-7,4.13889 2.309764,4.58797 2.309764,4.58797 h 57.123477 c 1.44204,-13.589925 -9.1912,-13.364356 -9.1912,-13.364356"
       id="path20" />
    <path
       style="fill:none;stroke:#000000;stroke-width:5.58121;stroke-linecap:butt;stroke-linejoin:miter;stroke-dasharray:none;stroke-opacity:1"
       d="M 67.801937,98.388574 H 122.1055"
       id="path9" />
    <path
       style="mix-blend-mode:normal;fill:#000000;fill-opacity:0.222785;stroke:none;stroke-width:0.529166;stroke-linecap:butt;stroke-linejoin:miter;stroke-dasharray:none;stroke-opacity:1;filter:url(#filter17)"
       d="m 64.723053,123.02054 c 0,0 1.914924,5.02301 2.363647,8.22899 0.177342,1.26704 2.180209,2 2.926043,2 h 49.330617 v -3.98985 l -46.774567,-0.39304 -2.55605,-2.53593 -3.051151,-2.48492 z"
       id="path17"
       transform="matrix(1.0676994,0,0,2.2504577,-5.8100671,-179.99047)" />
    <path
       style="fill:#000000;fill-opacity:1;stroke:none;stroke-width:3;stroke-linecap:butt;stroke-linejoin:round;stroke-dasharray:none;stroke-opacity:1"
       id="path26"
       d="m 67.164607,126.56899 c 0.626192,0.51125 1.191664,1.09359 1.837877,1.58095 0.173652,0.13096 0.355145,0.25118 0.532718,0.37678 0.791236,0.50691 1.471827,0.92472 2.445083,0.94065 0.574217,0.009 0.896906,-0.0885 1.45338,-0.20282 0.714216,-0.19591 1.398998,-0.48514 2.039033,-0.85769 3.701724,-2.15467 4.963975,-2.35999 7.145525,-4.52135 0.529032,-0.60698 1.105776,-1.24257 1.375661,-2.01814 0.04232,-0.1216 0.06683,-0.24867 0.10024,-0.37301 0.107805,-0.63328 0.112816,-1.26983 -0.554804,-1.60977 -0.133446,-0.0679 -0.287401,-0.0842 -0.431102,-0.12638 -2.947667,0.22027 -6.20853,2.50995 -7.962773,5.05711 -0.136043,0.19754 -0.256161,0.40558 -0.384241,0.60837 -0.550669,1.00182 -1.02824,2.06159 -1.303433,3.17552 -0.05313,0.21506 -0.0895,0.43391 -0.134257,0.65087 -0.192961,1.45865 -0.09564,2.93149 0.08262,4.38544 0.330779,1.81901 0.743495,3.62227 1.158327,5.42365 0.380087,1.78519 0.863269,3.5456 1.315352,5.31325 0.411888,1.4558 0.743162,2.93052 1.047012,4.41189 0.326771,1.56202 0.565388,3.1384 0.795607,4.71679 0.04729,0.3433 0.09318,0.68679 0.14188,1.02989 0.179814,1.26672 0.176409,1.09643 0.311489,2.3938 0.123219,1.18349 0.202793,2.37066 0.284935,3.55749 0.14024,1.98263 0.206899,3.9669 0.171926,5.95395 -0.05331,1.34213 -0.172442,2.69596 -0.534746,3.99485 -0.0711,0.25491 -0.16156,0.50402 -0.242343,0.75602 -0.364686,1.03 -0.819081,2.02371 -1.364784,2.97007 -0.127082,0.22038 -0.248759,0.4447 -0.39329,0.65405 -0.147971,0.21434 -0.32168,0.40971 -0.482523,0.61457 -1.086528,1.23268 -2.467515,2.13716 -3.867679,2.9718 -2.561074,1.42842 1.589648,-0.88183 4.651734,-2.72988 0.12895,-0.0778 -0.279847,0.11325 -0.425013,0.1534 -0.401619,0.11108 -0.697611,0.0861 -1.09674,0.009 -0.781688,-0.2501 -1.208606,-0.80462 -1.604799,-1.48798 -0.366172,-0.69552 -0.561329,-1.43995 -0.589327,-2.22181 0.01918,-0.43597 0.143012,-0.89704 0.526629,-1.15332 0.07278,-0.0486 0.154384,-0.0825 0.231579,-0.12378 -1.84192,1.09045 -3.683841,2.18089 -5.525759,3.27134 0.113689,-0.0633 0.220832,-0.14018 0.341069,-0.18996 0.182618,-0.0756 0.37152,-0.13754 0.563502,-0.18453 0.648729,-0.15879 1.328719,-0.18763 1.99191,-0.23026 1.261327,-0.1036 2.508221,0.0795 3.739282,0.33528 1.052438,0.25324 2.090798,0.56313 3.114278,0.91492 0.901668,0.32198 1.799759,0.6541 2.705002,0.96603 1.116674,0.38162 2.219211,0.80121 3.347834,1.14669 1.48835,0.44887 2.965206,0.93522 4.43516,1.44083 1.148757,0.37361 2.283328,0.78641 3.411357,1.218 0.788758,0.32361 1.612811,0.53159 2.450323,0.67886 1.054605,0.13436 2.106059,0.2992 3.1643,0.40225 1.077338,0.10306 2.158653,0.1547 3.239072,0.21296 0.82846,0.0637 1.65837,0.0444 2.48679,-0.004 0.84414,-0.0295 1.66534,-0.22819 2.48182,-0.42753 0.79063,-0.19011 1.56312,-0.43118 2.29235,-0.79206 2.86693,-1.4265 5.44204,-2.79792 7.75081,-4.85751 0.59248,-0.53473 1.1541,-1.10843 1.64439,-1.73875 0.40247,-0.57053 0.71424,-1.19047 1.03842,-1.80632 0.17833,-0.3607 0.0937,-0.1822 0.25461,-0.53519 0,0 -6.21845,2.83363 -6.21845,2.83363 v 0 c -0.15477,0.32337 -0.0738,0.15888 -0.2434,0.49322 -0.31035,0.58538 -0.63932,1.16484 -1.07455,1.66869 -0.51237,0.57602 -1.05506,1.12471 -1.64972,1.61673 -0.32478,0.26683 -0.64983,0.5321 -0.99386,0.77417 -1.90561,1.34087 -5.17402,2.48951 4.76254,-2.69455 -0.15718,0.0936 -0.48489,0.2923 -0.64871,0.37638 -0.49898,0.25611 -1.04129,0.4132 -1.57629,0.57338 -0.77878,0.21214 -1.57076,0.4184 -2.37491,0.49751 -0.83024,0.0758 -1.66517,0.13645 -2.49924,0.10714 -1.07948,-0.0266 -2.15899,-0.0698 -3.23477,-0.16644 -1.03201,-0.10542 -2.06424,-0.21857 -3.086659,-0.39669 -0.81526,-0.14141 -1.628089,-0.30735 -2.414757,-0.56834 -1.178467,-0.38091 -2.351299,-0.77901 -3.533407,-1.1487 -1.474935,-0.47687 -2.961036,-0.91976 -4.418002,-1.45103 -1.083476,-0.39781 -2.168488,-0.79015 -3.244027,-1.20927 -0.906393,-0.31542 -1.802661,-0.65913 -2.712609,-0.96463 -1.06119,-0.35923 -2.131959,-0.68572 -3.226752,-0.92831 -1.26211,-0.29245 -2.550417,-0.5611 -3.853347,-0.47855 -0.665607,0.0379 -1.3301,0.0862 -1.995315,0.12835 -0.182369,0.0116 -0.366083,0.005 -0.547616,0.0255 -2.462361,0.28394 -4.279837,5.32534 -6.465141,3.67376 -0.06111,0.0844 -0.130419,0.16339 -0.183333,0.25313 -0.28063,0.47597 -0.316968,1.04158 -0.274209,1.57855 0.121698,0.85806 0.38861,1.67522 0.782495,2.44898 0.457827,0.79598 0.979368,1.55102 1.851223,1.93052 0.490501,0.19555 0.813464,0.30607 1.355233,0.25818 0.174752,-0.0154 0.363958,-0.005 0.518946,-0.0877 4.121097,-2.18564 4.374446,-2.35125 6.712058,-3.79075 1.362766,-0.8975 2.697422,-1.8694 3.705511,-3.17169 0.161449,-0.23282 0.335336,-0.45748 0.484349,-0.69845 0.131702,-0.21296 0.241083,-0.43901 0.356489,-0.66123 0.515271,-0.99217 0.956212,-2.02382 1.311659,-3.08398 0.155196,-0.55158 0.308443,-1.04602 0.410186,-1.61163 0.194466,-1.08106 0.205846,-2.1922 0.24099,-3.28589 -0.02141,-1.98067 -0.152836,-3.95758 -0.335285,-5.92973 -0.214294,-2.35193 -0.469588,-4.69996 -0.653767,-7.05459 -0.158337,-1.624 -0.328372,-3.24901 -0.68072,-4.84485 -0.333177,-1.4785 -0.703408,-2.94825 -1.134144,-4.40159 -0.486934,-1.74204 -1.002081,-3.47692 -1.383329,-5.24652 -0.391869,-1.79683 -0.798132,-3.59816 -1.000726,-5.42801 -0.143843,-1.40108 -0.213593,-2.82427 0.07404,-4.21347 0.328602,-1.26317 0.771658,-2.49992 1.506797,-3.58992 0.406178,-0.55183 0.814512,-1.10338 1.353381,-1.53726 0.162002,-0.13044 0.698738,-0.45024 0.516223,-0.3505 -7.926998,4.33182 -7.044441,3.87035 -5.053539,2.83882 0.09731,-0.0506 0.239983,-0.16207 0.371496,-0.12706 0.185291,0.0493 0.0082,0.65642 -0.0214,0.75911 -0.326949,0.77969 -0.858888,1.44139 -1.467541,2.02352 -1.874239,1.64351 -3.97936,2.44671 4.093977,-2.12322 0.209003,-0.11831 -0.406132,0.25673 -0.614436,0.37626 -0.21082,0.12098 -0.42245,0.24159 -0.642432,0.34498 -0.218319,0.10261 -0.447054,0.18142 -0.670579,0.27213 -0.611492,0.18893 -1.264878,0.41293 -1.918073,0.37009 -0.606893,-0.0398 -1.100074,-0.38968 -1.613135,-0.67462 -0.165251,-0.11311 -0.335937,-0.21867 -0.49575,-0.33934 -0.581171,-0.43884 -1.104181,-0.98231 -1.484051,-1.60475 z" />
    <path
       style="fill:#000000;fill-opacity:1;stroke:none;stroke-width:3;stroke-linecap:butt;stroke-linejoin:round;stroke-dasharray:none;stroke-opacity:1"
       id="path27"
       d="m 109.39304,130.30857 c -0.41507,0.44404 -0.68478,1.02145 -0.92034,1.57655 -0.22099,0.59147 -0.4902,1.22459 -0.43491,1.87297 0.0111,0.12998 0.0496,0.25615 0.0744,0.38423 0.3079,1.01564 0.95092,1.42092 1.84924,1.88097 0.52051,0.22483 1.04831,0.45813 1.60821,0.56708 0.31224,0.0608 0.40811,0.0534 0.72184,0.067 2.62224,-0.15139 4.66813,-2.32566 6.82059,-3.6726 0.12815,-0.0802 0.17207,-0.25086 0.23227,-0.38953 0.0549,-0.12635 0.32974,-1.06237 0.36197,-1.17036 0.17295,-0.80036 0.24509,-1.61591 0.24385,-2.43396 -5.3e-4,-0.30589 0.007,-0.61345 -0.0287,-0.91721 -0.0875,-0.73835 -0.31245,-1.43873 -0.50994,-2.15129 -0.33678,-1.06958 -0.72154,-2.12441 -1.13613,-3.16621 -0.23604,-0.59314 -0.44935,-1.13688 -0.78152,-1.684 -0.15443,-0.25437 -0.34215,-0.48697 -0.51322,-0.73046 -0.57853,-0.67303 -1.28304,-1.20623 -2.01815,-1.69432 -0.39231,-0.26047 -0.852,-0.54602 -1.28142,-0.745 -0.21604,-0.10011 -0.44257,-0.17581 -0.66385,-0.26371 -0.92236,-0.28007 -1.88263,-0.38611 -2.84234,-0.28316 -0.62213,0.0667 -0.8796,0.14722 -1.48873,0.29019 -1.07954,0.2985 -2.10711,0.75882 -3.07337,1.32251 -6.374275,3.71859 -4.36769,2.28223 -7.092986,4.29 -0.797105,0.63667 -1.59871,1.29341 -2.286495,2.05132 -0.750078,0.82655 -1.377698,1.76902 -2.015815,2.68115 -0.692031,1.06779 -1.393225,2.14336 -1.905461,3.31299 -0.244914,0.55923 -0.375621,0.99732 -0.567089,1.57456 -0.200655,0.74092 -0.444767,1.47564 -0.555874,2.23802 -0.10904,0.74819 -0.10955,1.50198 -0.09405,2.25523 0.02783,0.97639 0.197234,1.94596 0.492432,2.87698 0.164574,0.51905 0.301969,0.82479 0.507598,1.32548 0.745577,1.58816 2.039096,2.79365 3.332033,3.93777 0.822973,0.61819 1.654913,1.23233 2.524469,1.78456 0.812207,0.51581 1.664787,0.95897 2.520238,1.39685 1.376,0.68403 2.80243,1.25587 4.24694,1.77638 0.91449,0.33456 1.84963,0.60644 2.76976,0.92399 0.90626,0.31532 1.65223,0.75564 2.40407,1.34656 0.75862,0.64807 1.41394,1.39928 1.99403,2.20811 0.53416,0.7821 0.7524,1.70093 0.92696,2.61696 0.1413,0.85256 0.12623,1.74169 -0.0977,2.58022 -0.0442,0.16533 -0.10466,0.32587 -0.15699,0.4888 -0.34695,1.02612 -1.0039,1.88091 -1.67106,2.7162 -0.7319,0.89923 -1.5298,1.73233 -2.45574,2.43124 -0.55309,0.38221 -1.11693,0.7499 -1.69772,1.08888 -0.14192,0.0829 -0.57151,0.32474 -0.4294,0.24222 1.76418,-1.02454 3.53043,-2.0455 5.29564,-3.06825 -0.84773,0.45388 -1.7491,0.78849 -2.67272,1.04881 -0.66802,0.18114 -1.34917,0.30753 -2.0433,0.31137 -0.54975,0.003 -0.88403,-0.0392 -1.43724,-0.0867 -1.41909,-0.18879 -2.82867,-0.46009 -4.20445,-0.85652 -1.1569,-0.36943 -2.265476,-0.8592 -3.306561,-1.48245 -0.940742,-0.57901 -1.682877,-1.38549 -2.330622,-2.26833 -0.544766,-0.77033 -1.006642,-1.59428 -1.405959,-2.448 -0.201443,-0.46275 -0.428617,-0.93248 -0.401851,-1.44684 0.03696,-0.42362 0.275465,-0.67823 0.549616,-0.97393 0.05141,-0.048 0.09935,-0.0999 0.154212,-0.1439 0.200729,-0.16088 0.408535,-0.22737 0.365771,-0.2022 -13.285219,7.81679 -7.19568,3.97873 -5.303166,3.11663 0.357484,-0.15242 0.72589,-0.20069 1.109925,-0.1727 0.452763,0.10135 0.772028,0.4335 1.038759,0.79214 0.230799,0.3265 0.376505,0.69449 0.482989,1.07685 0.0016,0.0461 0.01654,0.0938 0.0046,0.13832 -0.04722,0.17591 -0.450123,0.36508 -0.597882,0.43458 -2.517206,1.02791 7.680177,-4.54179 5.355952,-3.13979 0,0 -5.385284,4.28165 -5.385284,4.28165 v 0 c 2.336432,-0.80661 4.641472,-1.99205 6.410637,-3.72177 0.314333,-0.40891 0.405824,-0.7976 0.246902,-1.30279 -0.154088,-0.44698 -0.348224,-0.87584 -0.633368,-1.25672 -0.347993,-0.46631 -0.732986,-0.89596 -1.250333,-1.18025 -0.453449,-0.20995 -0.860632,-0.24703 -1.35249,-0.15454 -2.657385,0.52239 -5.360913,1.95416 -6.948513,4.15609 -0.258215,0.4324 -0.396706,0.90591 -0.34888,1.41434 0.09173,0.58681 0.3453,1.11541 0.628668,1.63408 0.470292,0.85915 0.983258,1.69301 1.553065,2.49035 0.696685,0.94338 1.473213,1.84286 2.460797,2.49345 0.41914,0.25807 0.562549,0.35847 1.005723,0.58175 0.795838,0.40095 1.64882,0.67089 2.483406,0.97664 0.476451,0.15451 0.923531,0.30895 1.410078,0.42956 0.943351,0.23385 1.914716,0.33533 2.867489,0.5204 1.15679,0.17185 2.32858,0.37672 3.48351,0.0799 0.95745,-0.2316 1.89416,-0.52606 2.78769,-0.94671 2.05974,-1.17648 4.12168,-2.34912 6.17921,-3.52944 0.72469,-0.41572 1.41478,-0.89715 2.066,-1.41932 0.87159,-0.77579 1.65094,-1.64285 2.37276,-2.55945 0.67891,-0.90581 1.30514,-1.85032 1.58916,-2.96278 0.0434,-0.18252 0.0954,-0.36319 0.13019,-0.54756 0.17433,-0.92517 0.15218,-1.87993 -0.008,-2.80441 -0.21128,-1.00787 -0.43684,-2.02802 -1.03068,-2.89143 -0.62751,-0.84653 -1.35942,-1.5971 -2.13466,-2.31002 -0.73695,-0.66451 -1.52637,-1.25225 -2.47129,-1.58876 -0.94133,-0.34761 -1.91705,-0.5788 -2.87748,-0.86699 -1.47458,-0.4587 -2.94682,-0.93944 -4.34324,-1.60642 -1.75475,-0.83206 -3.47307,-1.77101 -4.96369,-3.02962 -0.23115,-0.20477 -0.46932,-0.40187 -0.69345,-0.6143 -0.958214,-0.90818 -1.811681,-1.93721 -2.350399,-3.15155 -0.1808,-0.4309 -0.345427,-0.79437 -0.484402,-1.24175 -0.27378,-0.88136 -0.390763,-1.80518 -0.421431,-2.72483 0.0016,-0.62275 -0.01439,-0.79836 0.05394,-1.4209 0.106548,-0.9708 0.361125,-1.92006 0.648325,-2.85067 0.08861,-0.2493 0.169484,-0.50148 0.265832,-0.74788 0.541197,-1.38412 1.306684,-2.66799 2.125945,-3.90268 0.47853,-0.6699 0.78082,-1.12404 1.32038,-1.75219 0.91458,-1.06476 1.99042,-1.97871 3.12118,-2.80465 2.35856,-1.61117 0.88156,-0.56957 -3.87556,2.11751 -0.25455,0.14378 0.49667,-0.30897 0.75223,-0.45094 0.68425,-0.38011 1.40591,-0.69056 2.14433,-0.94825 0.68525,-0.20206 1.36985,-0.39578 2.08582,-0.45592 0.6672,-0.056 1.33147,0.0214 1.98501,0.15347 0.21064,0.0643 0.42577,0.11549 0.63191,0.19303 0.87497,0.32915 1.91607,0.94679 2.62304,1.55312 0.20548,0.17624 0.38785,0.37778 0.58177,0.56668 0.16137,0.21894 0.33505,0.42932 0.4841,0.65684 0.30908,0.47178 0.60184,1.05955 0.83559,1.5683 0.45507,0.99044 0.84766,2.01115 1.13148,3.06448 0.0777,0.35655 0.17703,0.70906 0.23306,1.06965 0.17844,1.14839 0.13116,2.3941 -0.15436,3.52241 -0.0601,0.23754 -0.14932,0.46675 -0.22397,0.70012 -0.19932,0.44902 -0.24028,0.64439 -0.56719,1.0059 -0.0929,0.10274 -0.44233,0.33077 -0.32106,0.26383 1.85153,-1.02209 3.67214,-2.09931 5.51754,-3.13241 0.0947,-0.053 -0.16602,0.14352 -0.26356,0.19109 -0.0947,0.0462 -0.20274,0.0572 -0.30412,0.0858 -0.33512,0.0537 -0.67009,0.0914 -1.00975,0.0406 -0.40886,-0.0612 -0.79816,-0.22411 -1.18576,-0.35824 -0.43166,-0.18903 -0.964,-0.39343 -1.24094,-0.80399 -0.12289,-0.18218 -0.14583,-0.33683 -0.19998,-0.54259 -0.0386,-0.68019 0.20769,-1.27353 0.50407,-1.8748 0.3107,-0.53595 0.65301,-1.04214 1.20003,-1.36182 z" />
  </g>
</svg>
