<?xml version="1.0" encoding="UTF-8"?>
<svg width="870.56" height="881.59" version="1.1" viewBox="0 0 230.34 233.26" xmlns="http://www.w3.org/2000/svg">
 <g transform="translate(-41.346 -192.37)">
  <g stroke="#000">
   <path d="m103.8 192.9h167.19l-62.215 232.19-166.73-0.0234z" fill="#91d886" stroke-width="1.065"/>
   <path d="m213.09 340.52-15.54 57.994h-53.309l15.476-58.006z" fill="#46ad36" stroke-width=".26458px"/>
   <path d="m115.96 207.93h34.715l-8.0454 30.026h37.475l4.6528-17.364h34.45l-19.918 74.337h-56.491l8.7812-32.772h-48.782l-1.7909 0.0114z" fill="#46ad36" stroke-width=".26458px"/>
  </g>
  <path d="m125.81 256.57 3.7964-14.168h57.423l-4.3985 14.457z" fill="none"/>
  <path d="m220.91 311.28-6.195 23.12h-98.09l6.1547-22.97z" fill="#46ad36" stroke="#000" stroke-width=".26458px"/>
  <g fill="none">
   <path d="m130.58 328.24 2.5801-9.6291h65.36l-2.6461 9.8753z"/>
   <path d="m150.52 291.9 6.8243-25.468h37.865l-6.8254 25.473z"/>
   <path d="m200.53 287.45h21.441l7.8774-29.399h10.837l11.285-42.115h-40.694l3.5009-13.065h-26.098l-2.8026 10.46h-16.311l-3.458 12.906h-15.764l2.0814-7.7679h-5.7202" stroke="#46ad36" stroke-width="3.4999"/>
   <path d="m201.41 287.45h20.556l7.8774-29.399h10.837l11.285-42.115h-40.694l3.5009-13.065h-26.098l-2.8026 10.46h-16.311l-3.458 12.906h-15.764l2.0814-7.7679h-4.6032" stroke="#83ff70" stroke-linecap="round" stroke-linejoin="round" stroke-width=".50006"/>
  </g>
  <path d="m136.45 231.1 4.4406-16.533-0.18086-0.67495h-17.268l-4.4344 16.55 0.38037 0.65881h17.063" fill="#5b5b5b" stroke="#000" stroke-linecap="round" stroke-width=".26458px"/>
  <g fill="none">
   <path d="m120.53 262.11-5.0253 18.755h-10.922l-4.454 16.623h28.425l-2.0115 7.5071h19.556l-1.7598 6.5679" stroke="#46ad36" stroke-linecap="round" stroke-width="3.5"/>
   <path d="m120.53 262.11-5.0253 18.755h-10.922l-4.454 16.623h28.425l-2.0115 7.5071h19.556l-1.7598 6.5679" stroke="#83ff70" stroke-linecap="round" stroke-linejoin="round" stroke-width=".5"/>
   <path d="m167.59 306.53 19.436-64.126h79.727l-19.47 64.239z"/>
  </g>
  <path d="m262.1 200.41c-0.17274 0.67726-0.90469 1.2415-1.641 1.2566-0.74635 0.0158-1.2063-0.5362-1.0206-1.2286 0.18425-0.68805 0.93348-1.243 1.6669-1.243 0.72404 0 1.1667 0.54267 0.99466 1.2149z" fill="#898989" opacity=".998" stroke="#d0d0d0" stroke-linecap="round" stroke-width="1.2187"/>
  <path d="m260.16 207.11c-0.17274 0.67726-0.90469 1.2415-1.641 1.2566-0.74635 0.0158-1.2063-0.5362-1.0206-1.2286 0.18425-0.68805 0.93348-1.243 1.6669-1.243 0.72404 0 1.1667 0.54267 0.99466 1.2149z" fill="#898989" opacity=".998" stroke="#d0d0d0" stroke-linecap="round" stroke-width="1.2187"/>
  <g fill="none">
   <path d="m159.85 378.9 9.9605-37.173h41.236l-10.024 37.41z"/>
   <path d="m208.7 356.71h7.9706l8.9645-33.456h-8.0694" stroke="#46ad36" stroke-linecap="round" stroke-width="3.4999"/>
   <path d="m208.7 356.71h7.9706l8.9645-33.456h-8.0694" stroke="#83ff70" stroke-linecap="round" stroke-width=".50006"/>
  </g>
 </g>
</svg>
