<?xml version="1.0" encoding="UTF-8" standalone="no"?>
<svg
   xmlns:dc="http://purl.org/dc/elements/1.1/"
   xmlns:cc="http://creativecommons.org/ns#"
   xmlns:rdf="http://www.w3.org/1999/02/22-rdf-syntax-ns#"
   xmlns:svg="http://www.w3.org/2000/svg"
   xmlns="http://www.w3.org/2000/svg"
   xmlns:sodipodi="http://sodipodi.sourceforge.net/DTD/sodipodi-0.dtd"
   xmlns:inkscape="http://www.inkscape.org/namespaces/inkscape"
   width="32"
   height="32"
   viewBox="0 0 8.4666667 8.4666667"
   version="1.1"
   id="svg8"
   inkscape:version="1.0.1 (3bc2e813f5, 2020-09-07)"
   sodipodi:docname="Sunflower.inkscape.svg">
  <defs
     id="defs2" />
  <sodipodi:namedview
     id="base"
     pagecolor="#ffffff"
     bordercolor="#666666"
     borderopacity="1.0"
     inkscape:pageopacity="0.0"
     inkscape:pageshadow="2"
     inkscape:zoom="8"
     inkscape:cx="-8.159343"
     inkscape:cy="21.637581"
     inkscape:document-units="mm"
     inkscape:current-layer="layer1"
     inkscape:document-rotation="0"
     showgrid="true"
     units="px"
     inkscape:window-width="1920"
     inkscape:window-height="1057"
     inkscape:window-x="1912"
     inkscape:window-y="-8"
     inkscape:window-maximized="1"
     inkscape:snap-grids="true"
     inkscape:object-paths="false"
     inkscape:snap-intersection-paths="true"
     inkscape:snap-midpoints="true"
     inkscape:snap-smooth-nodes="false"
     inkscape:object-nodes="true">
    <sodipodi:guide
       position="0,8.4666667"
       orientation="0,32"
       id="guide833" />
    <sodipodi:guide
       position="8.4666667,8.4666667"
       orientation="32,0"
       id="guide835" />
    <sodipodi:guide
       position="8.4666667,0"
       orientation="0,-32"
       id="guide837" />
    <sodipodi:guide
       position="0,0"
       orientation="-32,0"
       id="guide839" />
    <inkscape:grid
       type="xygrid"
       id="grid841"
       spacingx="0.52916667"
       spacingy="0.52916667"
       empspacing="4" />
  </sodipodi:namedview>
  <metadata
     id="metadata5">
    <rdf:RDF>
      <cc:Work
         rdf:about="">
        <dc:format>image/svg+xml</dc:format>
        <dc:type
           rdf:resource="http://purl.org/dc/dcmitype/StillImage" />
        <dc:title></dc:title>
      </cc:Work>
    </rdf:RDF>
  </metadata>
  <g
     inkscape:label="Ebene 1"
     inkscape:groupmode="layer"
     id="layer1">
    <circle
       style="fill:#d9bc40;fill-opacity:1;stroke:#000000;stroke-width:0.1;stroke-linecap:round;stroke-linejoin:round;stroke-miterlimit:4;stroke-dasharray:none"
       id="path845"
       cx="4.2333331"
       cy="4.2333331"
       r="3.175" />
    <ellipse
       style="fill:#ffffff;fill-opacity:0;stroke:#000000;stroke-width:0.1;stroke-linejoin:round;stroke-miterlimit:4;stroke-dasharray:none"
       id="path835"
       cy="4.2333331"
       cx="4.2333331"
       r="0.5291664" />
    <path
       id="path1073"
       style="fill:#ffdc00;stroke:#000000;stroke-width:0.377953;stroke-linecap:round;stroke-linejoin:round;stroke-miterlimit:4;stroke-dasharray:none;stroke-opacity:1;fill-opacity:1"
       d="M 15.953125 2 C 15.360918 2.0032811 14.78384 2.0446184 14.21875 2.1132812 L 12.894531 4.4082031 L 10.599609 3.0839844 C 9.5159905 3.5409976 8.48466 4.1244845 7.515625 4.8632812 L 7.515625 7.5136719 C 12.201916 2.8273807 19.800036 2.8273803 24.486328 7.5136719 L 24.486328 4.8632812 C 23.512532 4.1191917 22.478678 3.5383888 21.400391 3.0839844 L 19.105469 4.4082031 L 17.78125 2.1132812 C 17.15376 2.0314928 16.545332 1.9967189 15.953125 2 z M 24.486328 7.5136719 C 29.17262 12.199963 29.172619 19.798084 24.486328 24.484375 L 27.136719 24.484375 C 27.86142 23.531994 28.453731 22.504277 28.916016 21.400391 L 27.591797 19.105469 L 29.886719 17.779297 C 30.029211 16.631322 30.04722 15.449997 29.886719 14.21875 L 27.591797 12.892578 L 28.916016 10.597656 C 28.453745 9.4937632 27.861584 8.4659582 27.136719 7.5136719 L 24.486328 7.5136719 z M 24.486328 24.484375 C 19.800036 29.170666 12.201916 29.170667 7.515625 24.484375 L 7.515625 27.134766 C 8.5020133 27.888713 9.53443 28.465085 10.599609 28.916016 L 12.894531 27.589844 L 14.21875 29.884766 C 15.405886 30.036184 16.594113 30.036359 17.78125 29.884766 L 19.105469 27.589844 L 21.400391 28.916016 C 22.525039 28.446797 23.549235 27.845521 24.486328 27.134766 L 24.486328 24.484375 z M 7.515625 24.484375 C 2.8293329 19.798083 2.8293325 12.199963 7.515625 7.5136719 L 4.8652344 7.5136719 C 4.1265983 8.4827718 3.5408335 9.5139697 3.0839844 10.597656 L 4.4101562 12.892578 L 2.1132812 14.21875 C 1.9669967 15.385706 1.9575961 16.570683 2.1132812 17.779297 L 4.4101562 19.105469 L 3.0839844 21.400391 C 3.5407758 22.484146 4.1260998 23.515527 4.8652344 24.484375 L 7.515625 24.484375 z "
       transform="scale(0.26458333)" />
    <circle
       style="fill:#694712;fill-opacity:1;stroke:#000000;stroke-width:0.1;stroke-linecap:round;stroke-linejoin:round"
       id="path838"
       cx="4.2333331"
       cy="4.2333331"
       r="2.1166663" />
  </g>
</svg>
